<svg xmlns="http://www.w3.org/2000/svg" xmlns:xlink="http://www.w3.org/1999/xlink" width="2000" zoomAndPan="magnify" viewBox="0 0 1500 1499.999933" height="2000" preserveAspectRatio="xMidYMid meet" version="1.0"><defs><g/><clipPath id="617ae432b8"><rect x="0" width="1500" y="0" height="858"/></clipPath></defs><g transform="matrix(1, 0, 0, 1, 0, 321)"><g clip-path="url(#617ae432b8)"><g fill="#000000" fill-opacity="1"><g transform="translate(0.00003335, 692.31763)"><g><path d="M 561.65625 0.75 C 517.21875 0.75 495 -4.242188 495 -14.234375 L 479.28125 -314.53125 L 387.921875 -10.484375 C 385.921875 -4.492188 368.941406 -1.5 336.984375 -1.5 C 305.035156 -1.5 288.5625 -4.242188 287.5625 -9.734375 L 193.203125 -317.515625 L 182.71875 -18.71875 C 182.226562 -11.226562 172.742188 -6.109375 154.265625 -3.359375 C 135.796875 -0.617188 120.441406 0.75 108.203125 0.75 C 95.972656 0.75 84.117188 0 72.640625 -1.5 C 48.671875 -4.988281 36.9375 -11.226562 37.4375 -20.21875 L 54.671875 -506.984375 C 54.671875 -518.972656 85.125 -524.96875 146.03125 -524.96875 C 164 -524.96875 185.960938 -523.59375 211.921875 -520.84375 C 237.890625 -518.09375 252.367188 -512.722656 255.359375 -504.734375 L 339.234375 -268.84375 L 412.625 -505.484375 C 417.125 -518.472656 451.570312 -524.96875 515.96875 -524.96875 C 534.445312 -524.96875 556.539062 -523.59375 582.25 -520.84375 C 607.957031 -518.09375 620.8125 -513.222656 620.8125 -506.234375 L 642.53125 -14.984375 C 642.53125 -9.484375 632.796875 -5.484375 613.328125 -2.984375 C 593.859375 -0.492188 576.632812 0.75 561.65625 0.75 Z M 561.65625 0.75 "/></g></g></g><g fill="#000000" fill-opacity="1"><g transform="translate(679.227396, 692.31763)"><g><path d="M 262.859375 -11.984375 C 262.859375 -1.992188 238.144531 3 188.71875 3 C 139.289062 3 114.578125 -1.992188 114.578125 -11.984375 L 114.578125 -387.921875 L 24.71875 -387.921875 C 16.226562 -387.921875 10.234375 -399.398438 6.734375 -422.359375 C 5.242188 -433.347656 4.5 -444.582031 4.5 -456.0625 C 4.5 -467.539062 5.242188 -478.773438 6.734375 -489.765625 C 10.234375 -512.734375 16.226562 -524.21875 24.71875 -524.21875 L 350.46875 -524.21875 C 358.957031 -524.21875 364.953125 -512.734375 368.453125 -489.765625 C 369.941406 -478.773438 370.6875 -467.539062 370.6875 -456.0625 C 370.6875 -444.582031 369.941406 -433.347656 368.453125 -422.359375 C 364.953125 -399.398438 358.957031 -387.921875 350.46875 -387.921875 L 262.859375 -387.921875 Z M 262.859375 -11.984375 "/></g></g></g><g fill="#000000" fill-opacity="1"><g transform="translate(1055.161458, 692.31763)"><g><path d="M 405.140625 -388.671875 C 405.140625 -336.742188 382.675781 -297.300781 337.75 -270.34375 C 362.207031 -261.351562 382.671875 -245.875 399.140625 -223.90625 C 415.617188 -201.945312 423.859375 -170.867188 423.859375 -130.671875 C 423.859375 -90.484375 409.003906 -58.65625 379.296875 -35.1875 C 349.597656 -11.726562 307.039062 0 251.625 0 L 74.890625 0 C 66.398438 0 59.410156 -2.867188 53.921875 -8.609375 C 48.429688 -14.347656 45.6875 -21.960938 45.6875 -31.453125 L 45.6875 -510.734375 C 45.6875 -516.222656 46.554688 -519.84375 48.296875 -521.59375 C 50.046875 -523.34375 53.664062 -524.21875 59.15625 -524.21875 L 229.90625 -524.21875 C 346.726562 -524.21875 405.140625 -479.035156 405.140625 -388.671875 Z M 189.46875 -402.890625 L 189.46875 -304.796875 L 193.203125 -304.796875 C 241.140625 -304.796875 265.109375 -320.769531 265.109375 -352.71875 C 265.109375 -370.195312 260.488281 -382.925781 251.25 -390.90625 C 242.007812 -398.894531 226.65625 -402.890625 205.1875 -402.890625 Z M 189.46875 -216.421875 L 189.46875 -119.078125 L 202.9375 -119.078125 C 224.40625 -119.078125 240.132812 -123.066406 250.125 -131.046875 C 260.113281 -139.035156 265.109375 -151.765625 265.109375 -169.234375 C 265.109375 -186.710938 260.488281 -198.945312 251.25 -205.9375 C 242.007812 -212.925781 226.65625 -216.421875 205.1875 -216.421875 Z M 189.46875 -216.421875 "/></g></g></g></g></g></svg>