<svg xmlns="http://www.w3.org/2000/svg" xmlns:xlink="http://www.w3.org/1999/xlink" width="2000" zoomAndPan="magnify" viewBox="0 0 1500 1499.999933" height="2000" preserveAspectRatio="xMidYMid meet" version="1.0"><defs><g/><clipPath id="61fa304332"><rect x="0" width="1418" y="0" height="1430"/></clipPath></defs><g transform="matrix(1, 0, 0, 1, 41, 35)"><g clip-path="url(#61fa304332)"><g fill="#000000" fill-opacity="1"><g transform="translate(1.377211, 1154.582177)"><g><path d="M 438.8125 -20 C 438.8125 -3.332031 397.554688 5 315.046875 5 C 232.535156 5 191.28125 -3.332031 191.28125 -20 L 191.28125 -647.59375 L 41.25 -647.59375 C 27.082031 -647.59375 17.082031 -666.757812 11.25 -705.09375 C 8.75 -723.425781 7.5 -742.175781 7.5 -761.34375 C 7.5 -780.519531 8.75 -799.273438 11.25 -817.609375 C 17.082031 -855.953125 27.082031 -875.125 41.25 -875.125 L 585.078125 -875.125 C 599.242188 -875.125 609.242188 -855.953125 615.078125 -817.609375 C 617.578125 -799.273438 618.828125 -780.519531 618.828125 -761.34375 C 618.828125 -742.175781 617.578125 -723.425781 615.078125 -705.09375 C 609.242188 -666.757812 599.242188 -647.59375 585.078125 -647.59375 L 438.8125 -647.59375 Z M 438.8125 -20 "/></g></g></g><g fill="#000000" fill-opacity="1"><g transform="translate(597.706778, 1154.582177)"><g><path d="M 650.09375 2.5 C 577.582031 2.5 538.410156 -9.164062 532.578125 -32.5 L 491.3125 -193.78125 L 292.546875 -193.78125 L 256.28125 -38.75 C 251.28125 -12.914062 211.273438 0 136.265625 0 C 96.265625 0 66.675781 -2.289062 47.5 -6.875 C 28.332031 -11.457031 18.75 -15 18.75 -17.5 L 240.03125 -863.875 C 240.03125 -870.539062 297.117188 -873.875 411.296875 -873.875 C 525.484375 -873.875 582.578125 -870.539062 582.578125 -863.875 L 798.859375 -16.25 C 798.859375 -10.414062 779.6875 -5.832031 741.34375 -2.5 C 703.007812 0.832031 672.59375 2.5 650.09375 2.5 Z M 323.796875 -352.546875 L 455.0625 -352.546875 L 398.8125 -611.328125 L 391.296875 -611.328125 Z M 323.796875 -352.546875 "/></g></g></g></g></g></svg>